SIPNOSIS

En un futuro no muy lejano el boxeo es robótico: en los combates ya no se enfrentan seres humanos, sino robots humanoides, sofisticadas máquinas diseñadas para luchar. Charlie Kenton, un antiguo púgil que casi llegó a alcanzar la gloria, está pasando una mala racha como promotor de combates. Un día, encuentra un viejo robot desechado y, al comprobar que es un gran boxeador, decide entrenarlo.


DATOS TECNICOS

Format : Matroska
Format version : Version 4 / Version 2
File size : 3.57 GiB
Duration : 2h 6mn
Overall bit rate : 4 033 Kbps


Video
ID : 1
Format : AVC
Duration : 2h 6mn
Bit rate : 3 200 Kbps
Width : 1 920 pixels
Height : 816 pixels
Display aspect ratio : 2.35:1
Frame rate mode : Constant
Frame rate : 23.976 fps


Audio #1
ID : 2
Format : AC-3
Duration : 2h 6mn
Bit rate mode : Constant
Bit rate : 448 Kbps
Channel(s) : 6 channels
Channel positions : Front: L C R, Side: L R, LFE
Sampling rate : 48.0 KHz
Bit depth : 16 bits
Compression mode : Lossy
Stream size : 406 MiB (11%)
Title : Español Latino
Language : Latin
Default : Yes
Forced : No

Audio #2
ID : 3
Format : AC-3
Duration : 2h 6mn
Bit rate mode : Constant
Bit rate : 384 Kbps
Channel(s) : 6 channels
Channel positions : Front: L C R, Side: L R, LFE
Sampling rate : 48.0 KHz
Bit depth : 16 bits
Compression mode : Lossy
Stream size : 348 MiB (10%)
Title : Ingles
Language : English
Default : No
Forced : No

Text
ID : 4
Format : UTF-8
Codec ID : S_TEXT/UTF8
Codec ID/Info : UTF-8 Plain Text
Title : Español Latino
Language : Latin
Default : Yes
Forced : No